<?xml version="1.0" encoding="utf-8"?>
<svg fill="white" version="1.1" height="400" width="400" style="" viewBox="0 0 400 400"
    xmlns="http://www.w3.org/2000/svg">
    <path
        d="M 97.442 74.378 L 285.882 74.378 L 290.885 137.56 L 283.844 137.56 C 282.979 125.084 280.879 115.572 277.544 109.026 C 274.209 102.355 269.639 97.538 263.833 94.574 C 258.028 91.609 248.826 90.127 236.226 90.127 L 150.439 90.127 L 226.961 188.328 L 139.877 291.158 L 235.299 291.158 C 252.593 291.158 265.81 288.379 274.95 282.82 C 284.091 277.262 290.947 265.651 295.517 247.986 L 302.558 249.654 L 291.812 325.621 L 97.452 325.621 L 97.452 318.951 L 194.171 204.811 L 97.452 81.041 L 97.442 74.378 Z" />
</svg>